<svg width="32" height="32" viewBox="0 0 32 32" fill="none" xmlns="http://www.w3.org/2000/svg">
<path d="M15.6267 6.35999C14.688 6.42666 13.7618 6.57643 12.848 6.80932C11.7236 6.47231 10.5372 6.39571 9.37871 6.58532C9.3327 6.59129 9.28642 6.59485 9.24004 6.59599C8.82671 6.59599 8.28404 6.35865 7.49338 5.85865V6.67999C7.49318 6.82309 7.45461 6.96352 7.38167 7.08664C7.30874 7.20976 7.20412 7.31106 7.07871 7.37999C6.73471 7.57066 6.41471 7.79332 6.12271 8.03599C4.97071 8.99999 4.32004 10.284 4.32004 11.644C4.32049 12.0937 4.39204 12.5406 4.53204 12.968C4.18538 13.608 3.90271 14.2827 3.69604 14.9813C3.02938 13.9947 2.66938 12.8347 2.66671 11.644C2.66671 9.79599 3.53871 8.07066 5.04671 6.81066C5.29898 6.60079 5.56392 6.40665 5.84004 6.22932V4.30666C5.84004 3.64532 6.61337 3.26665 7.15871 3.65866C7.67463 4.03966 8.20858 4.39563 8.75871 4.72532C8.91689 4.81829 9.08128 4.90026 9.25071 4.97066C9.70404 4.9031 10.1654 4.86888 10.6347 4.86799C12.5174 4.86799 14.2574 5.42532 15.6267 6.35999ZM25.5814 10.208C27.96 12.1947 29.3334 14.9093 29.3334 17.8133C29.3334 23.752 23.656 28.4987 16.724 28.4987C9.79204 28.4987 4.11337 23.752 4.11337 17.8133C4.11337 11.8747 9.79204 7.12932 16.724 7.12932C17.5036 7.12932 18.2716 7.18843 19.028 7.30666C19.3547 7.23066 20.66 6.46532 22.5414 5.10932C23.2214 4.61732 24.1894 5.09199 24.1894 5.91999V9.19999C24.6768 9.50143 25.142 9.8374 25.5814 10.2053M18.9814 9.32799C18.9254 9.32799 18.8676 9.32355 18.808 9.31466C18.1193 9.20043 17.4222 9.14335 16.724 9.14399C10.868 9.14399 6.18138 13.0627 6.18138 17.8133C6.18138 22.564 10.868 26.4813 16.724 26.4813C22.5774 26.4813 27.2667 22.5627 27.2667 17.8133C27.2667 15.516 26.172 13.3533 24.236 11.7347C23.7472 11.3275 23.2156 10.9627 22.6414 10.64C22.32 10.46 22.1214 10.1267 22.1214 9.76666V7.87466C20.6334 8.86132 19.6547 9.32799 18.9827 9.32799" fill="black"/>
<path d="M21.8333 16C21.3913 16 20.9674 16.1756 20.6548 16.4882C20.3423 16.8007 20.1667 17.2246 20.1667 17.6667C20.1667 18.1087 20.3423 18.5326 20.6548 18.8452C20.9674 19.1577 21.3913 19.3333 21.8333 19.3333C22.2754 19.3333 22.6993 19.1577 23.0118 18.8452C23.3244 18.5326 23.5 18.1087 23.5 17.6667C23.5 17.2246 23.3244 16.8007 23.0118 16.4882C22.6993 16.1756 22.2754 16 21.8333 16ZM16.4173 16C15.9753 16 15.5514 16.1756 15.2388 16.4882C14.9263 16.8007 14.7507 17.2246 14.7507 17.6667C14.7507 18.1087 14.9263 18.5326 15.2388 18.8452C15.5514 19.1577 15.9753 19.3333 16.4173 19.3333C16.8594 19.3333 17.2833 19.1577 17.5958 18.8452C17.9084 18.5326 18.084 18.1087 18.084 17.6667C18.084 17.2246 17.9084 16.8007 17.5958 16.4882C17.2833 16.1756 16.8594 16 16.4173 16ZM11 15.9987C10.558 15.9987 10.134 16.1743 9.82149 16.4868C9.50893 16.7994 9.33333 17.2233 9.33333 17.6653C9.33333 18.1074 9.50893 18.5313 9.82149 18.8439C10.134 19.1564 10.558 19.332 11 19.332C11.442 19.332 11.866 19.1564 12.1785 18.8439C12.4911 18.5313 12.6667 18.1074 12.6667 17.6653C12.6667 17.2233 12.4911 16.7994 12.1785 16.4868C11.866 16.1743 11.442 15.9987 11 15.9987Z" fill="black"/>
</svg>
