<svg width="32" height="32" viewBox="0 0 32 32" fill="none" xmlns="http://www.w3.org/2000/svg">
<path d="M15.6268 6.35999C14.6882 6.42666 13.7619 6.57643 12.8482 6.80932C11.7237 6.47231 10.5373 6.39571 9.37883 6.58532C9.33283 6.59129 9.28654 6.59485 9.24016 6.59599C8.82683 6.59599 8.28416 6.35865 7.4935 5.85865V6.67999C7.49331 6.82309 7.45473 6.96352 7.38179 7.08664C7.30886 7.20976 7.20424 7.31106 7.07883 7.37999C6.73483 7.57066 6.41483 7.79332 6.12283 8.03599C4.97083 8.99999 4.32016 10.284 4.32016 11.644C4.32061 12.0937 4.39216 12.5406 4.53216 12.968C4.1855 13.608 3.90283 14.2827 3.69616 14.9813C3.0295 13.9947 2.6695 12.8347 2.66683 11.644C2.66683 9.79599 3.53883 8.07066 5.04683 6.81066C5.2991 6.60079 5.56405 6.40665 5.84016 6.22932V4.30666C5.84016 3.64532 6.6135 3.26665 7.15883 3.65866C7.67475 4.03966 8.2087 4.39563 8.75883 4.72532C8.91701 4.81829 9.0814 4.90026 9.25083 4.97066C9.70416 4.9031 10.1655 4.86888 10.6348 4.86799C12.5175 4.86799 14.2575 5.42532 15.6268 6.35999ZM25.5815 10.208C27.9602 12.1947 29.3335 14.9093 29.3335 17.8133C29.3335 23.752 23.6562 28.4987 16.7242 28.4987C9.79216 28.4987 4.1135 23.752 4.1135 17.8133C4.1135 11.8747 9.79216 7.12932 16.7242 7.12932C17.5037 7.12932 18.2717 7.18843 19.0282 7.30666C19.3548 7.23066 20.6602 6.46532 22.5415 5.10932C23.2215 4.61732 24.1895 5.09199 24.1895 5.91999V9.19999C24.6769 9.50143 25.1421 9.8374 25.5815 10.2053M18.9815 9.32799C18.9255 9.32799 18.8677 9.32355 18.8082 9.31466C18.1194 9.20043 17.4223 9.14335 16.7242 9.14399C10.8682 9.14399 6.1815 13.0627 6.1815 17.8133C6.1815 22.564 10.8682 26.4813 16.7242 26.4813C22.5775 26.4813 27.2668 22.5627 27.2668 17.8133C27.2668 15.516 26.1722 13.3533 24.2362 11.7347C23.7473 11.3275 23.2157 10.9627 22.6415 10.64C22.3202 10.46 22.1215 10.1267 22.1215 9.76666V7.87466C20.6335 8.86132 19.6548 9.32799 18.9828 9.32799" fill="#048581"/>
<path d="M21.8333 16C21.3913 16 20.9674 16.1756 20.6548 16.4882C20.3423 16.8007 20.1667 17.2246 20.1667 17.6667C20.1667 18.1087 20.3423 18.5326 20.6548 18.8452C20.9674 19.1577 21.3913 19.3333 21.8333 19.3333C22.2754 19.3333 22.6993 19.1577 23.0118 18.8452C23.3244 18.5326 23.5 18.1087 23.5 17.6667C23.5 17.2246 23.3244 16.8007 23.0118 16.4882C22.6993 16.1756 22.2754 16 21.8333 16ZM16.4173 16C15.9753 16 15.5514 16.1756 15.2388 16.4882C14.9263 16.8007 14.7507 17.2246 14.7507 17.6667C14.7507 18.1087 14.9263 18.5326 15.2388 18.8452C15.5514 19.1577 15.9753 19.3333 16.4173 19.3333C16.8594 19.3333 17.2833 19.1577 17.5958 18.8452C17.9084 18.5326 18.084 18.1087 18.084 17.6667C18.084 17.2246 17.9084 16.8007 17.5958 16.4882C17.2833 16.1756 16.8594 16 16.4173 16ZM11 15.9987C10.558 15.9987 10.134 16.1743 9.82149 16.4868C9.50893 16.7994 9.33333 17.2233 9.33333 17.6653C9.33333 18.1074 9.50893 18.5313 9.82149 18.8439C10.134 19.1564 10.558 19.332 11 19.332C11.442 19.332 11.866 19.1564 12.1785 18.8439C12.4911 18.5313 12.6667 18.1074 12.6667 17.6653C12.6667 17.2233 12.4911 16.7994 12.1785 16.4868C11.866 16.1743 11.442 15.9987 11 15.9987Z" fill="#048581"/>
</svg>
