<svg width="88" height="100" viewBox="0 0 88 100" fill="none" xmlns="http://www.w3.org/2000/svg">
<path d="M87.2902 50C87.2902 77.4027 67.8576 99.5 44.0212 99.5C20.1848 99.5 0.752197 77.4027 0.752197 50C0.752197 22.5973 20.1848 0.5 44.0212 0.5C67.8576 0.5 87.2902 22.5973 87.2902 50Z" stroke="#D8EE0C"/>
<g filter="url(#filter0_d_10_334)">
<ellipse cx="44.0212" cy="50" rx="35.0152" ry="40" fill="#D8EE0C" fill-opacity="0.1" shape-rendering="crispEdges"/>
<path d="M78.5364 50C78.5364 71.8798 63.023 89.5 44.0212 89.5C25.0194 89.5 9.50598 71.8798 9.50598 50C9.50598 28.1202 25.0194 10.5 44.0212 10.5C63.023 10.5 78.5364 28.1202 78.5364 50Z" stroke="#D8EE0C" shape-rendering="crispEdges"/>
</g>
<path d="M23.5385 33.3846C20.4812 33.3846 18 35.8658 18 38.9231V61.0769C18 64.1342 20.4812 66.6154 23.5385 66.6154H60.4615C63.5188 66.6154 66 64.1342 66 61.0769V38.9231C66 35.8658 63.5188 33.3846 60.4615 33.3846H23.5385ZM23.5385 37.0769H60.4615C61.4788 37.0769 62.3077 37.9058 62.3077 38.9231V39.8462L42 50.8086L21.6923 39.8462V38.9231C21.6923 37.9058 22.5212 37.0769 23.5385 37.0769ZM21.6923 40.3649L33.7495 49.7692L21.9231 61.8855L36.3471 51.6154L42 55.2505L47.6548 51.6154L62.0769 61.8855L50.2505 49.7692L62.3077 40.3649V61.0769C62.2975 61.3612 62.2183 61.6387 62.0769 61.8855C61.7723 62.4855 61.1797 62.9231 60.4615 62.9231H23.5385C22.8203 62.9231 22.2277 62.4874 21.9231 61.8855C21.782 61.6392 21.7028 61.3606 21.6923 61.0769V40.3649Z" fill="#D8EE0C"/>
<defs>
<filter id="filter0_d_10_334" x="3.70598" y="6.7" width="80.6304" height="90.6" filterUnits="userSpaceOnUse" color-interpolation-filters="sRGB">
<feFlood flood-opacity="0" result="BackgroundImageFix"/>
<feColorMatrix in="SourceAlpha" type="matrix" values="0 0 0 0 0 0 0 0 0 0 0 0 0 0 0 0 0 0 127 0" result="hardAlpha"/>
<feMorphology radius="1" operator="dilate" in="SourceAlpha" result="effect1_dropShadow_10_334"/>
<feOffset dy="2"/>
<feGaussianBlur stdDeviation="2.15"/>
<feComposite in2="hardAlpha" operator="out"/>
<feColorMatrix type="matrix" values="0 0 0 0 0.846365 0 0 0 0 0.935254 0 0 0 0 0.0463669 0 0 0 1 0"/>
<feBlend mode="normal" in2="BackgroundImageFix" result="effect1_dropShadow_10_334"/>
<feBlend mode="normal" in="SourceGraphic" in2="effect1_dropShadow_10_334" result="shape"/>
</filter>
</defs>
</svg>
