<svg width="32" height="32" viewBox="0 0 32 32" fill="none" xmlns="http://www.w3.org/2000/svg">
<path d="M16 4.05067C18.6792 4.84623 20.9045 6.46889 22.676 8.91867C24.4476 11.3684 25.3334 14.1289 25.3334 17.2V24.4107L16 27.8973L6.66671 24.4107V17.2C6.66671 14.1298 7.55249 11.3698 9.32404 8.92001C11.0956 6.47023 13.3209 4.84801 16 4.05067ZM16 5.46534C13.8445 6.13201 12.0445 7.44845 10.6 9.41467C9.1556 11.3809 8.31115 13.576 8.06671 16H16V26.4747L24 23.5V16.6253C24 16.4529 23.9778 16.2444 23.9334 16H16L16 5.46534Z" fill="black" fill-opacity="0.9"/>
</svg>
