<svg width="32" height="32" viewBox="0 0 32 32" fill="none" xmlns="http://www.w3.org/2000/svg">
<path d="M5.46672 15.12C5.68048 15.3633 5.79837 15.6761 5.79837 16C5.79837 16.3239 5.68048 16.6367 5.46672 16.88L3.76006 18.8C3.57199 19.0098 3.45521 19.2737 3.42647 19.554C3.39772 19.8342 3.45849 20.1164 3.60006 20.36L6.26673 24.9733C6.40685 25.2166 6.62021 25.4095 6.87639 25.5244C7.13257 25.6393 7.41849 25.6705 7.69339 25.6133L10.2001 25.1067C10.519 25.0408 10.8511 25.0939 11.1335 25.256C11.416 25.4181 11.6294 25.678 11.7334 25.9867L12.5467 28.4267C12.6362 28.6915 12.8066 28.9215 13.0339 29.0842C13.2612 29.2469 13.5339 29.3341 13.8134 29.3333H19.1467C19.4375 29.3485 19.7252 29.2681 19.966 29.1044C20.2067 28.9407 20.3873 28.7026 20.4801 28.4267L21.2267 25.9867C21.3307 25.678 21.5441 25.4181 21.8266 25.256C22.1091 25.0939 22.4411 25.0408 22.7601 25.1067L25.3334 25.6133C25.594 25.6502 25.8597 25.609 26.0969 25.4951C26.3342 25.3813 26.5325 25.1997 26.6667 24.9733L29.3334 20.36C29.4785 20.1191 29.5438 19.8385 29.5198 19.5584C29.4959 19.2782 29.3839 19.0127 29.2001 18.8L27.5067 16.88C27.293 16.6367 27.1751 16.3239 27.1751 16C27.1751 15.6761 27.293 15.3633 27.5067 15.12L29.2001 13.2C29.3839 12.9873 29.4959 12.7218 29.5198 12.4416C29.5438 12.1614 29.4785 11.8809 29.3334 11.64L26.6667 7.02666C26.5266 6.78336 26.3132 6.5905 26.0571 6.47558C25.8009 6.36066 25.515 6.32954 25.2401 6.38667L22.7334 6.89333C22.4144 6.95923 22.0824 6.90612 21.7999 6.744C21.5174 6.58188 21.3041 6.32197 21.2001 6.01333L20.3867 3.57333C20.294 3.29736 20.1134 3.05933 19.8726 2.89562C19.6319 2.7319 19.3441 2.65149 19.0534 2.66666H13.7201C13.4405 2.66594 13.1679 2.75309 12.9406 2.91579C12.7133 3.07848 12.5428 3.3085 12.4534 3.57333L11.6401 6.01333C11.5361 6.32197 11.3227 6.58188 11.0402 6.744C10.7577 6.90612 10.4257 6.95923 10.1067 6.89333L7.60006 6.38667C7.32516 6.32954 7.03924 6.36066 6.78306 6.47558C6.52688 6.5905 6.31352 6.78336 6.17339 7.02666L3.50672 11.64C3.36516 11.8836 3.30439 12.1657 3.33314 12.446C3.36188 12.7263 3.47866 12.9902 3.66672 13.2L5.46672 15.12ZM7.45339 13.3333L6.38672 12.1333L8.09339 9.17333L9.66673 9.49333C10.627 9.68963 11.626 9.5265 12.4739 9.03493C13.3219 8.54335 13.9599 7.75754 14.2667 6.82666L14.7734 5.33333H18.1867L18.6667 6.85333C18.9736 7.78421 19.6115 8.57002 20.4595 9.06159C21.3075 9.55317 22.3064 9.71629 23.2667 9.52L24.8401 9.2L26.5734 12.1467L25.5067 13.3467C24.8508 14.08 24.4881 15.0294 24.4881 16.0133C24.4881 16.9972 24.8508 17.9466 25.5067 18.68L26.5734 19.88L24.8667 22.8133L23.2934 22.4933C22.3331 22.297 21.3342 22.4602 20.4862 22.9517C19.6382 23.4433 19.0003 24.2291 18.6934 25.16L18.1867 26.6667H14.7734L14.2667 25.1467C13.9599 24.2158 13.3219 23.43 12.4739 22.9384C11.626 22.4468 10.627 22.2837 9.66673 22.48L8.09339 22.8L6.38672 19.84L7.45339 18.64C8.10197 17.9083 8.4601 16.9644 8.4601 15.9867C8.4601 15.0089 8.10197 14.065 7.45339 13.3333ZM16.4801 21.3333C17.5349 21.3333 18.566 21.0205 19.4431 20.4345C20.3202 19.8485 21.0037 19.0155 21.4074 18.041C21.8111 17.0664 21.9167 15.9941 21.7109 14.9595C21.5051 13.9249 20.9972 12.9746 20.2513 12.2288C19.5054 11.4829 18.5551 10.9749 17.5205 10.7691C16.486 10.5634 15.4136 10.669 14.4391 11.0726C13.4645 11.4763 12.6316 12.1599 12.0456 13.037C11.4595 13.914 11.1467 14.9452 11.1467 16C11.1467 17.4145 11.7086 18.771 12.7088 19.7712C13.709 20.7714 15.0656 21.3333 16.4801 21.3333ZM16.4801 13.3333C17.0075 13.3333 17.523 13.4897 17.9616 13.7827C18.4001 14.0758 18.7419 14.4922 18.9437 14.9795C19.1456 15.4668 19.1984 16.003 19.0955 16.5202C18.9926 17.0375 18.7386 17.5127 18.3657 17.8856C17.9927 18.2586 17.5176 18.5125 17.0003 18.6154C16.483 18.7183 15.9468 18.6655 15.4596 18.4637C14.9723 18.2618 14.5558 17.92 14.2628 17.4815C13.9698 17.043 13.8134 16.5274 13.8134 16C13.8134 15.2928 14.0943 14.6145 14.5944 14.1144C15.0945 13.6143 15.7728 13.3333 16.4801 13.3333Z" fill="black"/>
</svg>
