<svg width="32" height="32" viewBox="0 0 32 32" fill="none" xmlns="http://www.w3.org/2000/svg">
<path fill-rule="evenodd" clip-rule="evenodd" d="M20.2067 21.46C20.0192 21.2727 19.765 21.1675 19.5 21.1675C19.235 21.1675 18.9809 21.2727 18.7934 21.46L16.5 23.7533L16.5 12.8333C16.5 12.5681 16.3947 12.3137 16.2071 12.1262C16.0196 11.9387 15.7652 11.8333 15.5 11.8333C15.2348 11.8333 14.9805 11.9387 14.7929 12.1262C14.6054 12.3137 14.5 12.5681 14.5 12.8333L14.5 23.7533L12.2067 21.46C12.1151 21.3617 12.0047 21.2829 11.8821 21.2283C11.7594 21.1736 11.627 21.1442 11.4927 21.1419C11.3585 21.1395 11.2251 21.1642 11.1006 21.2145C10.976 21.2648 10.8629 21.3396 10.768 21.4346C10.673 21.5296 10.5982 21.6427 10.5479 21.7672C10.4976 21.8917 10.4729 22.0251 10.4752 22.1593C10.4776 22.2936 10.507 22.426 10.5617 22.5487C10.6163 22.6714 10.6951 22.7818 10.7934 22.8733L14.7934 26.8733C14.9809 27.0606 15.235 27.1658 15.5 27.1658C15.765 27.1658 16.0192 27.0606 16.2067 26.8733L20.2067 22.8733C20.394 22.6858 20.4991 22.4317 20.4991 22.1667C20.4991 21.9017 20.394 21.6475 20.2067 21.46Z" fill="black"/>
<path d="M15.5 4.83333C12.671 4.83333 9.95787 5.95714 7.95749 7.95753C5.9571 9.95791 4.83329 12.671 4.83329 15.5H9.83329C11.0906 15.5 11.7186 15.5 12.1093 15.1093C12.5 14.7187 12.5 14.0907 12.5 12.8333C12.5 12.0377 12.816 11.2746 13.3786 10.712C13.9412 10.1494 14.7043 9.83333 15.5 9.83333C16.2956 9.83333 17.0587 10.1494 17.6213 10.712C18.1839 11.2746 18.5 12.0377 18.5 12.8333C18.5 14.0907 18.5 14.7187 18.8906 15.1093C19.2813 15.5 19.9093 15.5 21.1666 15.5H26.1666C26.1666 12.671 25.0428 9.95791 23.0424 7.95753C21.042 5.95714 18.3289 4.83333 15.5 4.83333Z" fill="black"/>
</svg>
