<svg width="100" height="100" viewBox="0 0 100 100" fill="none" xmlns="http://www.w3.org/2000/svg">
<rect width="100" height="100" rx="10" fill="#FF0202" fill-opacity="0.58"/>
<path d="M37.5028 33.9375L37.0181 34.7159C37.0181 34.7159 31.5938 43.2986 31.5938 57.125V58.7812H42.0678C41.9564 59.3267 41.9023 59.8816 41.9062 60.4375C41.9062 64.9922 45.7734 68.7188 50.5 68.7188C55.2266 68.7188 59.0938 64.9922 59.0938 60.4375C59.0938 59.8678 59.0473 59.3195 58.9322 58.7812H69.4062V57.125C69.4062 49.4897 68.0725 43.8916 66.7198 40.1981C65.3689 36.508 63.9269 34.6099 63.9269 34.6099L63.3906 33.9375H37.5028ZM39.5963 37.25H61.4587C61.708 37.5945 62.4436 38.4624 63.4972 41.3409C64.6144 44.3884 65.6147 49.175 65.8072 55.4688H57.375C55.8023 53.4647 53.2913 52.1562 50.5 52.1562C47.7087 52.1562 45.1977 53.4647 43.625 55.4688H35.1928C35.5847 44.4547 39.0291 38.1941 39.5963 37.25ZM48.7812 40.5625V43.875H45.3438V47.1875H48.7812V50.5H52.2188V47.1875H55.6562V43.875H52.2188V40.5625H48.7812ZM50.5 55.4688C53.3703 55.4688 55.6562 57.6716 55.6562 60.4375C55.6562 63.2034 53.3703 65.4062 50.5 65.4062C47.6297 65.4062 45.3438 63.2034 45.3438 60.4375C45.3438 57.6716 47.6297 55.4688 50.5 55.4688ZM50.5 58.7812C50.0442 58.7812 49.607 58.9557 49.2847 59.2664C48.9623 59.577 48.7812 59.9982 48.7812 60.4375C48.7812 60.8768 48.9623 61.298 49.2847 61.6086C49.607 61.9193 50.0442 62.0938 50.5 62.0938C50.9558 62.0938 51.393 61.9193 51.7153 61.6086C52.0377 61.298 52.2188 60.8768 52.2188 60.4375C52.2188 59.9982 52.0377 59.577 51.7153 59.2664C51.393 58.9557 50.9558 58.7812 50.5 58.7812Z" fill="white"/>
<path d="M37.5028 33.9375L37.0181 34.7159C37.0181 34.7159 31.5938 43.2986 31.5938 57.125V58.7812H42.0678C41.9564 59.3267 41.9023 59.8816 41.9062 60.4375C41.9062 64.9922 45.7734 68.7188 50.5 68.7188C55.2266 68.7188 59.0938 64.9922 59.0938 60.4375C59.0938 59.8678 59.0473 59.3195 58.9322 58.7812H69.4062V57.125C69.4062 49.4897 68.0725 43.8916 66.7198 40.1981C65.3689 36.508 63.9269 34.6099 63.9269 34.6099L63.3906 33.9375H37.5028ZM39.5963 37.25H61.4587C61.708 37.5945 62.4436 38.4624 63.4972 41.3409C64.6144 44.3884 65.6147 49.175 65.8072 55.4688H57.375C55.8023 53.4647 53.2913 52.1562 50.5 52.1562C47.7087 52.1562 45.1977 53.4647 43.625 55.4688H35.1928C35.5847 44.4547 39.0291 38.1941 39.5963 37.25ZM48.7812 40.5625V43.875H45.3438V47.1875H48.7812V50.5H52.2188V47.1875H55.6562V43.875H52.2188V40.5625H48.7812ZM50.5 55.4688C53.3703 55.4688 55.6562 57.6716 55.6562 60.4375C55.6562 63.2034 53.3703 65.4062 50.5 65.4062C47.6297 65.4062 45.3438 63.2034 45.3438 60.4375C45.3438 57.6716 47.6297 55.4688 50.5 55.4688ZM50.5 58.7812C50.0442 58.7812 49.607 58.9557 49.2847 59.2664C48.9623 59.577 48.7812 59.9982 48.7812 60.4375C48.7812 60.8768 48.9623 61.298 49.2847 61.6086C49.607 61.9193 50.0442 62.0938 50.5 62.0938C50.9558 62.0938 51.393 61.9193 51.7153 61.6086C52.0377 61.298 52.2188 60.8768 52.2188 60.4375C52.2188 59.9982 52.0377 59.577 51.7153 59.2664C51.393 58.9557 50.9558 58.7812 50.5 58.7812Z" fill="white"/>
</svg>
