<svg width="88" height="100" viewBox="0 0 88 100" fill="none" xmlns="http://www.w3.org/2000/svg">
<path d="M87.2902 50C87.2902 77.4027 67.8576 99.5 44.0212 99.5C20.1848 99.5 0.752197 77.4027 0.752197 50C0.752197 22.5973 20.1848 0.5 44.0212 0.5C67.8576 0.5 87.2902 22.5973 87.2902 50Z" stroke="#048581"/>
<g filter="url(#filter0_d_10_327)">
<ellipse cx="44.0213" cy="50" rx="35.0152" ry="40" fill="#7BBDAB" fill-opacity="0.1" shape-rendering="crispEdges"/>
<path d="M78.5365 50C78.5365 71.8798 63.0231 89.5 44.0213 89.5C25.0195 89.5 9.5061 71.8798 9.5061 50C9.5061 28.1202 25.0195 10.5 44.0213 10.5C63.0231 10.5 78.5365 28.1202 78.5365 50Z" stroke="#048581" shape-rendering="crispEdges"/>
</g>
<path fill-rule="evenodd" clip-rule="evenodd" d="M37.1021 37.105C36.7958 36.7546 36.432 36.4765 36.0315 36.2868C35.6311 36.097 35.2018 35.9993 34.7683 35.9991C34.3348 35.9989 33.9055 36.0963 33.5049 36.2857C33.1043 36.4751 32.7403 36.7528 32.4337 37.103L31.8175 37.807C31.2216 37.6128 30.591 37.6052 29.9917 37.7848C29.3923 37.9644 28.8462 38.3247 28.4105 38.828C27.756 39.5833 27.3888 40.6032 27.3888 41.666C27.3888 42.7288 27.756 43.7487 28.4105 44.504L29.1397 45.343V56H26.5135V58H28.3081C27.8733 58.4866 27.5753 59.1101 27.452 59.7909C27.3287 60.4718 27.3857 61.1792 27.6158 61.8229C27.8458 62.4666 28.2385 63.0174 28.7437 63.4052C29.2489 63.7929 29.8437 64 30.4523 64C31.061 64 31.6558 63.7929 32.161 63.4052C32.6662 63.0174 33.0588 62.4666 33.2889 61.8229C33.5189 61.1792 33.5759 60.4718 33.4526 59.7909C33.3293 59.1101 33.0313 58.4866 32.5966 58H55.4457C55.011 58.4866 54.713 59.1101 54.5897 59.7909C54.4664 60.4718 54.5234 61.1792 54.7534 61.8229C54.9835 62.4666 55.3761 63.0174 55.8813 63.4052C56.3865 63.7929 56.9813 64 57.59 64C58.1986 64 58.7934 63.7929 59.2986 63.4052C59.8038 63.0174 60.1965 62.4666 60.4265 61.8229C60.6566 61.1792 60.7136 60.4718 60.5903 59.7909C60.467 59.1101 60.1689 58.4866 59.7342 58H61.5287V56H58.0272V52.887C58.7791 52.6724 59.4463 52.1762 59.9223 51.4776C60.3984 50.779 60.6557 49.9183 60.6534 49.033C60.6534 46.843 59.1118 45.066 57.2096 45.066H38.8652C38.8297 45.0665 38.7945 45.0588 38.7617 45.0433C38.7289 45.0279 38.6992 45.005 38.6743 44.976L38.3539 44.606L38.677 44.239C38.9836 43.889 39.227 43.4733 39.393 43.0158C39.559 42.5583 39.6445 42.068 39.6446 41.5727C39.6447 41.0775 39.5594 40.587 39.3935 40.1295C39.2276 39.6719 38.9844 39.2562 38.6778 38.906L37.1021 37.105ZM37.1197 43.188L37.4392 42.824C37.5832 42.6596 37.6974 42.4644 37.7753 42.2496C37.8532 42.0348 37.8933 41.8045 37.8933 41.572C37.8933 41.3395 37.8532 41.1092 37.7753 40.8944C37.6974 40.6796 37.5832 40.4844 37.4392 40.32L35.8635 38.52C35.7197 38.3554 35.5489 38.2247 35.361 38.1355C35.173 38.0463 34.9714 38.0003 34.7679 38.0002C34.5643 38 34.3627 38.0456 34.1746 38.1345C33.9865 38.2233 33.8155 38.3536 33.6715 38.518L33.3651 38.868L37.1197 43.188ZM58.9026 49.033C58.9026 47.931 58.1305 47.066 57.2096 47.066H38.8652C38.5989 47.0664 38.3353 47.0066 38.0895 46.8898C37.8437 46.7731 37.6205 46.6019 37.433 46.386L32.088 40.238C31.9289 40.0536 31.7393 39.9072 31.5303 39.8073C31.3213 39.7073 31.0969 39.6559 30.8703 39.6559C30.6437 39.6559 30.4194 39.7073 30.2103 39.8073C30.0013 39.9072 29.8117 40.0536 29.6527 40.238C29.3239 40.6186 29.1396 41.1318 29.1396 41.6665C29.1396 42.2012 29.3239 42.7144 29.6527 43.095L36.5261 51H57.2096C58.1323 51 58.9026 50.135 58.9026 49.033ZM35.5081 52.667C35.6937 52.88 35.944 53 36.2058 53H56.2765V56H30.8904V47.356L35.5081 52.667ZM31.7658 60.5C31.7658 60.8978 31.6275 61.2794 31.3812 61.5607C31.135 61.842 30.801 62 30.4528 62C30.1045 62 29.7705 61.842 29.5243 61.5607C29.278 61.2794 29.1397 60.8978 29.1397 60.5C29.1397 60.1022 29.278 59.7206 29.5243 59.4393C29.7705 59.158 30.1045 59 30.4528 59C30.801 59 31.135 59.158 31.3812 59.4393C31.6275 59.7206 31.7658 60.1022 31.7658 60.5ZM57.5895 62C57.9378 62 58.2718 61.842 58.518 61.5607C58.7643 61.2794 58.9026 60.8978 58.9026 60.5C58.9026 60.1022 58.7643 59.7206 58.518 59.4393C58.2718 59.158 57.9378 59 57.5895 59C57.2413 59 56.9073 59.158 56.6611 59.4393C56.4148 59.7206 56.2765 60.1022 56.2765 60.5C56.2765 60.8978 56.4148 61.2794 56.6611 61.5607C56.9073 61.842 57.2413 62 57.5895 62Z" fill="#048581"/>
<defs>
<filter id="filter0_d_10_327" x="3.7061" y="6.7" width="80.6304" height="90.6" filterUnits="userSpaceOnUse" color-interpolation-filters="sRGB">
<feFlood flood-opacity="0" result="BackgroundImageFix"/>
<feColorMatrix in="SourceAlpha" type="matrix" values="0 0 0 0 0 0 0 0 0 0 0 0 0 0 0 0 0 0 127 0" result="hardAlpha"/>
<feMorphology radius="1" operator="dilate" in="SourceAlpha" result="effect1_dropShadow_10_327"/>
<feOffset dy="2"/>
<feGaussianBlur stdDeviation="2.15"/>
<feComposite in2="hardAlpha" operator="out"/>
<feColorMatrix type="matrix" values="0 0 0 0 0.0156863 0 0 0 0 0.521569 0 0 0 0 0.505882 0 0 0 1 0"/>
<feBlend mode="normal" in2="BackgroundImageFix" result="effect1_dropShadow_10_327"/>
<feBlend mode="normal" in="SourceGraphic" in2="effect1_dropShadow_10_327" result="shape"/>
</filter>
</defs>
</svg>
