<svg width="32" height="32" viewBox="0 0 32 32" fill="none" xmlns="http://www.w3.org/2000/svg">
<path fill-rule="evenodd" clip-rule="evenodd" d="M6.66667 26.6667C5.9939 26.6669 5.34591 26.4128 4.8526 25.9554C4.35929 25.4979 4.05712 24.8709 4.00666 24.2L4 24L4 6.66669C3.99979 5.99392 4.25387 5.34593 4.71133 4.85262C5.16878 4.35932 5.79579 4.05714 6.46667 4.00669L6.66667 4.00002L25.3333 4.00002C26.0061 3.99981 26.6541 4.2539 27.1474 4.71135C27.6407 5.1688 27.9429 5.79581 27.9933 6.46669L28 6.66669L28 24C28.0002 24.6728 27.7461 25.3208 27.2887 25.8141C26.8312 26.3074 26.2042 26.6096 25.5333 26.66L25.3333 26.6667L6.66667 26.6667ZM21.3333 10.6667H25.3333V6.66669H21.3333V10.6667ZM6.66667 10.6667H18.6667L18.6667 6.66669L6.66667 6.66669V10.6667ZM21.3333 17.3334H25.3333V13.3334H21.3333V17.3334ZM6.66667 17.3334H18.6667V13.3334H6.66667L6.66667 17.3334ZM21.3333 24H25.3333V20H21.3333V24ZM6.66667 24L18.6667 24V20L6.66667 20V24Z" fill="black"/>
</svg>
