<svg width="32" height="32" viewBox="0 0 32 32" fill="none" xmlns="http://www.w3.org/2000/svg">
<path d="M5.46648 15.12C5.68024 15.3633 5.79812 15.6761 5.79812 16C5.79812 16.3239 5.68024 16.6367 5.46648 16.88L3.75981 18.8C3.57175 19.0098 3.45497 19.2737 3.42623 19.554C3.39748 19.8342 3.45825 20.1164 3.59981 20.36L6.26648 24.9733C6.40661 25.2166 6.61997 25.4095 6.87615 25.5244C7.13233 25.6393 7.41825 25.6705 7.69315 25.6133L10.1998 25.1067C10.5188 25.0408 10.8508 25.0939 11.1333 25.256C11.4158 25.4181 11.6291 25.678 11.7331 25.9867L12.5465 28.4267C12.6359 28.6915 12.8063 28.9215 13.0336 29.0842C13.2609 29.2469 13.5336 29.3341 13.8131 29.3333H19.1465C19.4372 29.3485 19.725 29.2681 19.9657 29.1044C20.2065 28.9407 20.387 28.7026 20.4798 28.4267L21.2265 25.9867C21.3305 25.678 21.5439 25.4181 21.8263 25.256C22.1088 25.0939 22.4409 25.0408 22.7598 25.1067L25.3331 25.6133C25.5937 25.6502 25.8594 25.609 26.0967 25.4951C26.334 25.3813 26.5322 25.1997 26.6665 24.9733L29.3331 20.36C29.4783 20.1191 29.5435 19.8385 29.5196 19.5584C29.4956 19.2782 29.3837 19.0127 29.1998 18.8L27.5065 16.88C27.2927 16.6367 27.1748 16.3239 27.1748 16C27.1748 15.6761 27.2927 15.3633 27.5065 15.12L29.1998 13.2C29.3837 12.9873 29.4956 12.7218 29.5196 12.4416C29.5435 12.1614 29.4783 11.8809 29.3331 11.64L26.6665 7.02666C26.5263 6.78336 26.313 6.5905 26.0568 6.47558C25.8006 6.36066 25.5147 6.32954 25.2398 6.38667L22.7331 6.89333C22.4142 6.95923 22.0821 6.90612 21.7997 6.744C21.5172 6.58188 21.3038 6.32197 21.1998 6.01333L20.3865 3.57333C20.2937 3.29736 20.1132 3.05933 19.8724 2.89562C19.6316 2.7319 19.3439 2.65149 19.0531 2.66666H13.7198C13.4403 2.66594 13.1676 2.75309 12.9403 2.91579C12.713 3.07848 12.5426 3.3085 12.4531 3.57333L11.6398 6.01333C11.5358 6.32197 11.3224 6.58188 11.04 6.744C10.7575 6.90612 10.4254 6.95923 10.1065 6.89333L7.59981 6.38667C7.32491 6.32954 7.03899 6.36066 6.78282 6.47558C6.52664 6.5905 6.31328 6.78336 6.17315 7.02666L3.50648 11.64C3.36491 11.8836 3.30415 12.1657 3.33289 12.446C3.36164 12.7263 3.47842 12.9902 3.66648 13.2L5.46648 15.12ZM7.45315 13.3333L6.38648 12.1333L8.09315 9.17333L9.66648 9.49333C10.6268 9.68963 11.6257 9.5265 12.4737 9.03493C13.3217 8.54335 13.9596 7.75754 14.2665 6.82666L14.7731 5.33333H18.1865L18.6665 6.85333C18.9733 7.78421 19.6113 8.57002 20.4593 9.06159C21.3072 9.55317 22.3062 9.71629 23.2665 9.52L24.8398 9.2L26.5731 12.1467L25.5065 13.3467C24.8505 14.08 24.4879 15.0294 24.4879 16.0133C24.4879 16.9972 24.8505 17.9466 25.5065 18.68L26.5731 19.88L24.8665 22.8133L23.2931 22.4933C22.3329 22.297 21.3339 22.4602 20.4859 22.9517C19.638 23.4433 19 24.2291 18.6931 25.16L18.1865 26.6667H14.7731L14.2665 25.1467C13.9596 24.2158 13.3217 23.43 12.4737 22.9384C11.6257 22.4468 10.6268 22.2837 9.66648 22.48L8.09315 22.8L6.38648 19.84L7.45315 18.64C8.10173 17.9083 8.45985 16.9644 8.45985 15.9867C8.45985 15.0089 8.10173 14.065 7.45315 13.3333ZM16.4798 21.3333C17.5346 21.3333 18.5658 21.0205 19.4429 20.4345C20.3199 19.8485 21.0035 19.0155 21.4072 18.041C21.8108 17.0664 21.9165 15.9941 21.7107 14.9595C21.5049 13.9249 20.9969 12.9746 20.251 12.2288C19.5052 11.4829 18.5549 10.9749 17.5203 10.7691C16.4857 10.5634 15.4134 10.669 14.4388 11.0726C13.4643 11.4763 12.6313 12.1599 12.0453 13.037C11.4593 13.914 11.1465 14.9452 11.1465 16C11.1465 17.4145 11.7084 18.771 12.7086 19.7712C13.7088 20.7714 15.0653 21.3333 16.4798 21.3333ZM16.4798 13.3333C17.0072 13.3333 17.5228 13.4897 17.9613 13.7827C18.3999 14.0758 18.7417 14.4922 18.9435 14.9795C19.1453 15.4668 19.1981 16.003 19.0952 16.5202C18.9923 17.0375 18.7384 17.5127 18.3654 17.8856C17.9925 18.2586 17.5173 18.5125 17.0001 18.6154C16.4828 18.7183 15.9466 18.6655 15.4593 18.4637C14.9721 18.2618 14.5556 17.92 14.2626 17.4815C13.9695 17.043 13.8131 16.5274 13.8131 16C13.8131 15.2928 14.0941 14.6145 14.5942 14.1144C15.0943 13.6143 15.7726 13.3333 16.4798 13.3333Z" fill="#048581"/>
</svg>
